<?xml version="1.0" encoding="utf-8"?>
<!-- Generator: Adobe Illustrator 24.3.0, SVG Export Plug-In . SVG Version: 6.00 Build 0)  -->
<svg version="1.1" id="Calque_1" xmlns="http://www.w3.org/2000/svg" xmlns:xlink="http://www.w3.org/1999/xlink" x="0px" y="0px"
	 viewBox="0 0 2504 276" style="enable-background:new 0 0 2504 276;" xml:space="preserve">
<style type="text/css">
	.st0{fill-rule:evenodd;clip-rule:evenodd;fill:url(#SVGID_1_);}
	.st1{fill-rule:evenodd;clip-rule:evenodd;fill:url(#SVGID_2_);}
	.st2{fill-rule:evenodd;clip-rule:evenodd;fill:#595959;}
	.st3{fill-rule:evenodd;clip-rule:evenodd;fill:url(#SVGID_3_);}
	.st4{fill-rule:evenodd;clip-rule:evenodd;fill:url(#SVGID_4_);}
	.st5{fill-rule:evenodd;clip-rule:evenodd;fill:url(#SVGID_5_);}
	.st6{fill:#595959;}
</style>
<g>
	
		<linearGradient id="SVGID_1_" gradientUnits="userSpaceOnUse" x1="65.1952" y1="159.8" x2="365.0288" y2="159.8" gradientTransform="matrix(1 0 0 -1 0 298)">
		<stop  offset="0" style="stop-color:#E96522"/>
		<stop  offset="0.9993" style="stop-color:#E31C25"/>
	</linearGradient>
	<path class="st0" d="M75.9,262c0-9.9,0-20.1,0-30.9c4.1,0,7.8,0,11.6,0c64.6,0,129.2,0.1,193.9-0.2c7.5,0,15.5-0.9,22.5-3.5
		c12.3-4.7,19.6-14,19.2-28c-0.2-5.8,0-11.5,0-17.3c-0.1-16.4-8.4-27.2-24.4-30.9c-5.2-1.2-10.8-1.7-16.1-1.7
		c-49.6-0.1-99.2-0.1-148.8-0.1c-20.4,0-38.4-6.1-53.2-20.3c-9.9-9.5-15.5-21-15.4-35c0-8,0.1-16,0-24C65,55.4,71,43.4,81.6,33.7
		c14.3-13.2,31.4-19.3,50.7-19.3c29.7,0,59.5,0,89.2,0c36.8,0,73.6,0,110.4,0c3.5,0,7,0,11.3,0c0,10.2,0,19.9,0,30.8
		c-3.8,0-7.6,0-11.3,0c-61.1,0-122.2,0-183.3,0c-4.2,0-8.3-0.1-12.5,0.4c-18.2,2.2-29.2,14.1-29.6,31.7c-0.6,27.3,11,39.5,38.4,39.6
		c49.6,0.2,99.2,0.1,148.7,0.1c17,0,33,3.5,47.2,13.5c16,11.3,24.8,26.2,24.2,46.3c-0.3,8.6-0.3,17.3,0,25.9
		c0.5,18.8-7.6,33.2-22.3,44.4c-13.3,10-28.5,14.7-44.8,14.7c-72,0.2-144,0.1-215.9,0.1C79.8,262,78,262,75.9,262z"/>
	
		<linearGradient id="SVGID_2_" gradientUnits="userSpaceOnUse" x1="406.1" y1="140.95" x2="689.5" y2="140.95" gradientTransform="matrix(1 0 0 -1 0 298)">
		<stop  offset="0" style="stop-color:#E96522"/>
		<stop  offset="0.9993" style="stop-color:#E31C25"/>
	</linearGradient>
	<path class="st1" d="M689.5,262c-10,0-17.6,0-28,0c-70.9-53.1-144.5-108.2-218-163.2c0,55.2,0,109.6,0,163.2c-13.1,0-24.9,0-37.4,0
		c0-69.3,0-139.8,0-209.8c9.2,0,18.6,0,29.6,0c70.7,52.7,142.7,106.4,216.3,161.3c0-54.9,0-107.8,0-161.4c13,0,25,0,37.5,0
		C689.5,121.6,689.5,192.3,689.5,262z"/>
	<path class="st2" d="M1647.4,262c-17.4,0-32.9,0-49.2,0c-45-67.8-91.2-137.3-137.2-206.5c-45.6,69-91.7,138.5-136.7,206.5
		c-16.1,0-31.6,0-49.2,0c55.6-84,111.3-168.4,166.1-251.3c13.5,0,26.5,0,40,0C1536.1,93.5,1591.7,177.7,1647.4,262z"/>
	
		<linearGradient id="SVGID_3_" gradientUnits="userSpaceOnUse" x1="1034.5" y1="141.35" x2="1271.641" y2="141.35" gradientTransform="matrix(1 0 0 -1 0 298)">
		<stop  offset="0" style="stop-color:#E96522"/>
		<stop  offset="0.9993" style="stop-color:#E31C25"/>
	</linearGradient>
	<path class="st3" d="M1071.5,181.3c0,27.2,0,54.3,0,80.7c-12.5,0-24.4,0-37,0c0-69.2,0-140,0-209.9c2.4-0.3,4.8-0.8,7.3-0.8
		c58.2,0,116.4,0,174.6,0c12.1,0,23.4,3,33.5,9.9c14.1,9.6,22.4,22.5,21.7,40.2c-0.3,9.3-0.1,18.5-0.1,27.8
		c0,27-16.8,46.7-43.6,50.8c-5.7,0.9-11.5,1.2-17.2,1.2c-42.2,0.1-84.4,0.1-126.6,0.1C1080.2,181.3,1076.5,181.3,1071.5,181.3z
		 M1072,155.1c25.1,0,49,0,72.9,0c21.4,0,42.8,0.2,64.2-0.1c18.1-0.2,28.4-10.7,28.6-28.7c0.1-7.7,0.2-15.4-0.1-23
		c-0.5-13.4-8.8-22.8-21.9-25.2c-4.4-0.8-8.9-1-13.4-1c-40-0.1-79.9,0-119.9,0c-3.4,0-6.9,0-10.6,0
		C1072,103.6,1072,128.7,1072,155.1z"/>
	<path class="st2" d="M2223.3,54c69.5,0,138.4,0,208.1,0c0,8.4,0,16.5,0,25.7c-59.4,0-118.4,0-178,0c0,19.4,0,37.7,0,57.3
		c55.6,0,111.1,0,167.2,0c0,9,0,16.8,0,25.8c-55.6,0-111.1,0-167.2,0c0,23.7,0,48.2,0,71.9c59.1,0,118.2,0,178.1,0
		c0,9.2,0,18.8,0,27.3c-69.3,0-138.4,0-208.1,0C2223.3,193.9,2223.3,122.4,2223.3,54z"/>
	<path class="st2" d="M1906.2,53.8c0,8.7,0,16.8,0,25.9c-4.1,0-7.8,0-11.5,0c-49.6,0-99.1,0-148.7,0c-4.2,0-8.4-0.1-12.4,0.5
		c-13,1.9-22.2,11.8-22.3,24.8c-0.3,35.2-0.2,70.4,0,105.5c0.1,13.5,9.5,23.3,23.1,25.1c3.8,0.5,7.7,0.4,11.5,0.4
		c49.6,0,99.1,0,148.7,0c3.5,0,7,0,11.2,0c0,8.7,0,17.2,0,26c-3.3,0-5.7,0-9.5,0c-53.4,0-106.8,0-160.2,0c-15.2,0-29.2-3.3-41-13.3
		c-10.9-9.2-16.8-20.6-16.7-35.1c0.2-36.5,0-72.9,0.1-109.4c0-25,16.3-44.5,41.1-49.1c4.7-0.9,9.5-1.4,14.3-1.4
		c55-0.1,110-0.1,165,0C1901,53.8,1903.2,53.8,1906.2,53.8z"/>
	
		<linearGradient id="SVGID_4_" gradientUnits="userSpaceOnUse" x1="708.9999" y1="141.2" x2="1014.2" y2="141.2" gradientTransform="matrix(1 0 0 -1 0 298)">
		<stop  offset="0" style="stop-color:#E96522"/>
		<stop  offset="0.9993" style="stop-color:#E31C25"/>
	</linearGradient>
	<path class="st4" d="M850.5,51.6c8.2,0,15.2,0,22.5,0c46.5,69.3,94,140,141.2,210.4c-14.7,0-27.8,0-41.9,0
		c-36.1-53.5-73.7-109.3-110.9-164.4c-36.8,54.7-74,110.1-110.5,164.4c-13.3,0-26.8,0-41.9,0C756.4,191.6,803.9,120.9,850.5,51.6z"
		/>
	
		<linearGradient id="SVGID_5_" gradientUnits="userSpaceOnUse" x1="1361.3999" y1="113.85" x2="1561.2" y2="113.85" gradientTransform="matrix(1 0 0 -1 0 298)">
		<stop  offset="0" style="stop-color:#E96522"/>
		<stop  offset="0.9993" style="stop-color:#E31C25"/>
	</linearGradient>
	<path class="st5" d="M1561.2,262c-66.3,0-133.6,0-199.8,0c32.9-51.4,66.6-103.7,99.9-155.7C1494.2,157.7,1527.8,210.1,1561.2,262z"
		/>
	<path class="st2" d="M2186.9,53.8c0,8.5,0,17.1,0,25.8c-36.3,0-72.2,0-109,0c0,61.1,0,121.6,0,182.4c-10.6,0-20.2,0-30.9,0
		c0-60.1,0-120.6,0-181.8c-37.2,0-73.4,0-110.2,0c0-9.1,0-17.9,0-26.4C2020,53.8,2103,53.8,2186.9,53.8z"/>
	<path class="st2" d="M940.1,262c-54.8,0-109.1,0-163.4,0c27.6-42.3,55.6-85.3,83.4-127.8C886.6,176.5,913.3,219.3,940.1,262z"/>
</g>
<image style="display:none;overflow:visible;enable-background:new    ;" width="441" height="48" xlink:href="../logo_def+darkgrey.png"  transform="matrix(5.3832 0 0 5.3832 64 8.6939)">
</image>
<circle class="st6" cx="1564" cy="69" r="27.3"/>
</svg>
